# xmcd
#
# Track frame offsets: 
#        150
#        25945
#        37505
#        50082
#        64439
#        92037
#        106842
#
# Disc length: 1765 seconds
#
# Revision: 0
# Processed by: cddbd v1.5.2PL0 Copyright (c) Steve Scherf et al.
# Submitted via: ExactAudioCopy v1.0b4
#
DISCID=5306e307
DTITLE=Konstantin Kolesnichenko - Hypnotizied
DYEAR=2016
DGENRE=Blues
TTITLE0=Bad Girl
TTITLE1=Tribute To William Clarke
TTITLE2=Canto de Ossanha
TTITLE3=The Dog's Tall
TTITLE4=East Breeze
TTITLE5=Brother Jack, Bill And Gator
TTITLE6=Hypnotizied
EXTD=
EXTT0=
EXTT1=
EXTT2=
EXTT3=
EXTT4=
EXTT5=
EXTT6=
PLAYORDER=
